<svg xmlns="http://www.w3.org/2000/svg" height="100" viewBox="0 0 100 100" width="100" xml:space="preserve" style="clip-rule:evenodd;fill-rule:evenodd;image-rendering:optimizeQuality;shape-rendering:geometricPrecision;text-rendering:geometricPrecision"><defs><style type="text/css">
    .fil0 {fill:#282828}
   </style></defs><path class="fil0" d="M19.1 80.9c-17.1-17.1-17.1-44.8 0-61.9 17.1-17.1 44.8-17.1 61.9 0 17.1 17.1 17.1 44.8 0 61.9-17.1 17.1-44.8 17.1-61.9 0zm2.2-2.2c-15.9-15.9-15.9-41.6 0-57.5 15.9-15.9 41.6-15.9 57.5 0 15.9 15.9 15.9 41.6 0 57.5-15.9 15.9-41.6 15.9-57.5 0zm17.8-10l0-25-7.8 0 0 25 7.8 0zm-3.9-29.7c2.4 0 3.9-1.7 3.9-3.9 0-2.2-1.5-3.9-3.9-3.9-2.4 0-3.9 1.7-3.9 3.9 0 2.2 1.5 3.9 3.8 3.9l0 0zm8.6 29.7l7.8 0 0-14.1c0-0.8 0.1-1.5 0.3-2.1 0.6-1.5 2.6-3.1 4.8-3.1 2.9 0 4.3 2.3 4.3 5.7l0 13.5 7.8 0 0-14.5c0-7.8-4-11.4-9.2-11.4-4.3 0-6.9 2.5-8 4.3l0.1 0 0-3.4-7.8 0c0.1 2.4 0 25 0 25l0 0z"/></svg>