<svg xmlns="http://www.w3.org/2000/svg" height="100" viewBox="0 0 100 100" width="100" xml:space="preserve" style="clip-rule:evenodd;fill-rule:evenodd;image-rendering:optimizeQuality;shape-rendering:geometricPrecision;text-rendering:geometricPrecision"><defs><style type="text/css">
    .fil0 {fill:#282828}
   </style></defs><path class="fil0" d="M19.1 80.9c-17.1-17.1-17.1-44.8 0-61.9 17.1-17.1 44.8-17.1 61.9 0 17.1 17.1 17.1 44.8 0 61.9-17.1 17.1-44.8 17.1-61.9 0zm2.2-2.2c-15.9-15.9-15.9-41.6 0-57.5 15.9-15.9 41.6-15.9 57.5 0 15.9 15.9 15.9 41.6 0 57.5-15.9 15.9-41.6 15.9-57.5 0zm10-16.2c0 0 0 0 0 0l1.8 0c2.8-2.8 5.6-5.6 8.5-8.5 0.6-0.6 1.6-0.6 2.2 0 0.6 0.6 0.6 1.6 0 2.2l-6.3 6.3c-5 0 19.3 0 25 0l-6.2-6.2c-0.6-0.6-0.6-1.6 0-2.2 0.6-0.6 1.6-0.6 2.2 0l8.5 8.5 1.8 0c0 0 0 0 0 0l0-19.3 3.1-3.1 0 22.4c0 1.7-1.4 3.1-3.1 3.1-22.9 0-14.6 0-37.5 0-1.7 0-3.1-1.4-3.1-3.1l0-22.4 3.1 3.1 0 19.3zm-2.8-26.5c0.5-1 1.6-1.7 2.8-1.7l37.5 0c1.2 0 2.2 0.7 2.8 1.7l-2.8 2.8-16.5 16.5c-1.2 1.2-3.2 1.2-4.4 0l-19.3-19.3zm37.1 1.5l-31.3 0 15.6 15.6 15.6-15.6z"/></svg>