<svg xmlns="http://www.w3.org/2000/svg" height="100" viewBox="0 0 100 100" width="100" xml:space="preserve" style="clip-rule:evenodd;fill-rule:evenodd;image-rendering:optimizeQuality;shape-rendering:geometricPrecision;text-rendering:geometricPrecision"><defs><style type="text/css">
    .fil0 {fill:#282828}
   </style></defs><path class="fil0" d="M19.1 80.9c-17.1-17.1-17.1-44.8 0-61.9 17.1-17.1 44.8-17.1 61.9 0 17.1 17.1 17.1 44.8 0 61.9-17.1 17.1-44.8 17.1-61.9 0zm2.2-2.2c-15.9-15.9-15.9-41.6 0-57.5 15.9-15.9 41.6-15.9 57.5 0 15.9 15.9 15.9 41.6 0 57.5-15.9 15.9-41.6 15.9-57.5 0zm47.5-40.7c-1.4 0.6-2.9 1.1-4.4 1.2 1.6-1 2.8-2.5 3.4-4.4-1.5 0.9-3.1 1.6-4.9 1.9-1.4-1.5-3.4-2.5-5.6-2.5-4.2 0-7.7 3.5-7.7 7.9 0 0.6 0.1 1.2 0.2 1.8-6.4-0.3-12.1-3.5-15.9-8.2-0.7 1.2-1 2.5-1 4 0 2.7 1.4 5.2 3.4 6.6-1.3 0-2.4-0.4-3.5-1 0 0 0 0.1 0 0.1 0 3.8 2.7 7 6.2 7.7-0.6 0.2-1.3 0.3-2 0.3-0.5 0-1 0-1.4-0.1 1 3.1 3.8 5.4 7.2 5.5-2.6 2.1-5.9 3.4-9.6 3.4-0.6 0-1.2 0-1.8-0.1 3.4 2.2 7.4 3.5 11.8 3.5 14.2 0 21.9-12 21.9-22.4 0-0.3 0-0.7 0-1 1.5-1.1 2.8-2.5 3.8-4.1z"/></svg>